<?xml version="1.0" encoding="UTF-8" standalone="no"?>
<!DOCTYPE svg PUBLIC "-//W3C//DTD SVG 1.1//EN" "http://www.w3.org/Graphics/SVG/1.1/DTD/svg11.dtd">
<svg width="100%" height="100%" viewBox="0 0 800 600" version="1.1" xmlns="http://www.w3.org/2000/svg" xmlns:xlink="http://www.w3.org/1999/xlink" xml:space="preserve" xmlns:serif="http://www.serif.com/" style="fill-rule:evenodd;clip-rule:evenodd;stroke-linecap:round;stroke-linejoin:round;stroke-miterlimit:1.5;">
    <g transform="matrix(0.82327,0,0,0.82327,123.083,102.748)">
        <g transform="matrix(2.52617,0,0,2.52617,-353.097,-497.284)">
            <g transform="matrix(1,0,0,1,-12.8981,-1.09088)">
                <circle cx="286.122" cy="243.364" r="20.414" style="fill:rgb(255,255,204);stroke:rgb(83,83,83);stroke-width:1.44px;"/>
            </g>
            <g transform="matrix(1,0,0,1,-80.393,-49.3818)">
                <text x="334.323px" y="263.778px" style="font-family:'ArialMT', 'Arial', sans-serif;font-size:20px;">Dirty</text>
            </g>
        </g>
        <g transform="matrix(2.52617,0,0,2.52617,-353.097,-326.614)">
            <g transform="matrix(1,0,0,1,-12.8981,-1.09088)">
                <circle cx="286.122" cy="243.364" r="20.414" style="fill:rgb(251,222,182);stroke:rgb(83,83,83);stroke-width:1.44px;"/>
            </g>
            <g transform="matrix(1,0,0,1,-34.6079,-15.0211)">
                <text x="334.323px" y="263.778px" style="font-family:'ArialMT', 'Arial', sans-serif;font-size:20px;">Pending</text>
            </g>
        </g>
        <g transform="matrix(2.52617,0,0,2.52617,-542.058,-402.595)">
            <g transform="matrix(1,0,0,1,175.821,130.97)">
                <g transform="matrix(1,0,0,1,-12.8981,-1.09088)">
                    <circle cx="286.122" cy="243.364" r="20.414" style="fill:rgb(255,217,210);stroke:rgb(83,83,83);stroke-width:1.44px;"/>
                </g>
                <g transform="matrix(1,0,0,1,-35.1931,-13.8475)">
                    <text x="334.323px" y="263.778px" style="font-family:'ArialMT', 'Arial', sans-serif;font-size:20px;">Failure</text>
                </g>
            </g>
            <g transform="matrix(1,0,0,1,-25.6003,130.97)">
                <g transform="matrix(1,0,0,1,-12.8981,-1.09088)">
                    <circle cx="286.122" cy="243.364" r="20.414" style="fill:rgb(214,239,207);stroke:rgb(83,83,83);stroke-width:1.44px;"/>
                </g>
                <g transform="matrix(1,0,0,1,-33.5705,-13.8572)">
                    <text x="334.323px" y="263.778px" style="font-family:'ArialMT', 'Arial', sans-serif;font-size:20px;">Success</text>
                </g>
            </g>
        </g>
        <g transform="matrix(2.52617,0,0,2.52617,-502.822,-380.416)">
            <g transform="matrix(0.480834,-0,-0,0.480834,139.863,101.185)">
                <path d="M409.973,269.339L401.029,287.367L391.973,269.395C396.487,273.881 405.487,273.853 409.973,269.339Z" style="fill:rgb(83,83,83);"/>
                <path d="M399.446,249.234C399.446,257.147 399.462,265.059 399.484,272.971C399.486,273.799 400.16,274.469 400.988,274.467C401.816,274.465 402.486,273.791 402.484,272.963C402.462,265.053 402.446,257.144 402.446,249.234C402.446,248.406 401.774,247.734 400.946,247.734C400.118,247.734 399.446,248.406 399.446,249.234Z" style="fill:rgb(83,83,83);"/>
            </g>
            <g transform="matrix(1,0,0,1.0775,0,-22.6506)">
                <g transform="matrix(0.480834,-0,-0,0.446248,139.863,114.928)">
                    <path d="M207.967,485.4L193.034,498.892L191.2,478.851C193.755,484.68 202.138,487.954 207.967,485.4Z" style="fill:rgb(83,83,83);"/>
                    <path d="M400.557,397.342C400.434,408.306 400.776,417.756 400.016,425.764C399.285,433.458 397.549,439.785 393.205,444.777C388.829,449.806 381.847,453.448 370.808,455.894C359.432,458.414 343.843,459.628 322.486,459.628C312.012,459.628 266.094,458.989 231.787,467.44C216.792,471.134 204.01,476.607 197.142,484.494C196.599,485.118 196.664,486.066 197.289,486.61C197.913,487.154 198.861,487.088 199.405,486.464C205.952,478.945 218.21,473.874 232.505,470.353C266.54,461.969 312.095,462.628 322.486,462.628C344.131,462.628 359.928,461.377 371.457,458.823C383.323,456.194 390.765,452.152 395.469,446.746C400.206,441.302 402.205,434.439 403.002,426.047C403.77,417.969 403.432,408.436 403.557,397.376C403.566,396.548 402.902,395.868 402.074,395.859C401.246,395.849 400.567,396.514 400.557,397.342Z" style="fill:rgb(83,83,83);"/>
                </g>
            </g>
            <g transform="matrix(-0.949654,0,0,1.0775,649.597,-22.6506)">
                <g transform="matrix(-0.506326,0,0,0.446248,536.758,114.928)">
                    <path d="M602.689,478.881L600.556,498.892L585.827,485.179C591.617,487.82 600.048,484.671 602.689,478.881Z" style="fill:rgb(83,83,83);"/>
                    <path d="M400.557,397.375C400.676,408.411 400.114,417.924 400.541,425.985C400.986,434.377 402.521,441.24 406.77,446.684C411.007,452.113 417.971,456.18 429.474,458.82C440.607,461.375 456.096,462.628 477.623,462.628C486.076,462.628 519.023,462.149 548.619,467.278C568.02,470.641 586.006,476.332 594.365,486.363C594.895,486.999 595.842,487.085 596.478,486.555C597.114,486.025 597.2,485.078 596.67,484.442C590.108,476.569 577.948,471.106 563.693,467.419C531.11,458.991 487.564,459.628 477.623,459.628C456.397,459.628 441.122,458.415 430.145,455.896C419.537,453.462 413.042,449.846 409.135,444.839C405.239,439.847 403.945,433.521 403.537,425.826C403.112,417.801 403.675,408.33 403.557,397.343C403.548,396.515 402.869,395.85 402.041,395.859C401.213,395.868 400.548,396.547 400.557,397.375Z" style="fill:rgb(83,83,83);"/>
                </g>
            </g>
            <g transform="matrix(0.480834,-0,-0,0.480834,139.863,101.185)">
                <path d="M331.039,189.514L349.89,196.559L332.944,207.413C336.942,202.462 335.99,193.513 331.039,189.514Z" style="fill:rgb(83,83,83);"/>
                <path d="M150.177,521.851C149.806,521.846 149.406,521.627 148.956,521.335C148.303,520.912 147.611,520.306 146.9,519.587C143.312,515.958 139.376,509.557 138.236,506.977C132.44,493.858 132.89,476.457 132.89,467.111C132.89,378.537 180.832,304.879 234.287,257.138C269.869,225.359 307.891,205.052 335.86,199.555C336.673,199.395 337.203,198.606 337.043,197.794C336.883,196.981 336.094,196.451 335.282,196.611C306.933,202.183 268.353,222.691 232.288,254.901C178.272,303.143 129.89,377.606 129.89,467.111C129.89,476.744 129.518,494.667 135.492,508.189C136.712,510.952 140.925,517.81 144.767,521.696C146.71,523.661 148.665,524.83 150.134,524.851C150.962,524.862 151.644,524.2 151.655,523.372C151.667,522.544 151.004,521.863 150.177,521.851Z" style="fill:rgb(83,83,83);"/>
            </g>
            <g transform="matrix(-1.03499,0,0,1,673.01,0)">
                <g transform="matrix(-0.464579,0,0,0.480834,515.123,101.185)">
                    <path d="M462.625,207.304L445.61,196.559L464.415,189.393C459.49,193.424 458.595,202.379 462.625,207.304Z" style="fill:rgb(83,83,83);"/>
                    <path d="M652.353,524.851C653.862,524.83 655.859,523.664 657.854,521.714C661.831,517.828 666.19,510.97 667.454,508.207C673.64,494.678 673.255,476.748 673.255,467.111C673.255,377.399 622.956,302.794 566.894,254.558C529.476,222.363 489.49,201.93 460.211,196.516C459.397,196.365 458.614,196.904 458.463,197.718C458.313,198.532 458.851,199.315 459.666,199.466C488.568,204.81 528.001,225.052 564.938,256.832C620.41,304.56 670.255,378.343 670.255,467.111C670.255,476.453 670.722,493.846 664.725,506.959C663.546,509.539 659.471,515.94 655.758,519.568C655.02,520.29 654.3,520.898 653.622,521.322C653.141,521.624 652.709,521.846 652.313,521.851C651.485,521.862 650.822,522.543 650.833,523.371C650.844,524.199 651.526,524.862 652.353,524.851Z" style="fill:rgb(83,83,83);"/>
                </g>
            </g>
        </g>
    </g>
</svg>
