<?xml version="1.0" encoding="UTF-8" standalone="no"?>
<!DOCTYPE svg PUBLIC "-//W3C//DTD SVG 1.1//EN" "http://www.w3.org/Graphics/SVG/1.1/DTD/svg11.dtd">
<svg width="100%" height="100%" viewBox="0 0 800 450" version="1.1" xmlns="http://www.w3.org/2000/svg" xmlns:xlink="http://www.w3.org/1999/xlink" xml:space="preserve" xmlns:serif="http://www.serif.com/" style="fill-rule:evenodd;clip-rule:evenodd;stroke-linecap:round;stroke-linejoin:round;stroke-miterlimit:1.5;">
    <g transform="matrix(1,0,0,1,0,-90)">
        <g transform="matrix(0.737609,0,0,0.737609,150.449,93.9878)">
            <g transform="matrix(2.52617,0,0,2.52617,-353.097,-497.284)">
                <g transform="matrix(1,0,0,1,-12.8981,-1.09088)">
                    <circle cx="286.122" cy="243.364" r="20.414" style="fill:rgb(255,255,204);stroke:rgb(83,83,83);stroke-width:1.61px;"/>
                </g>
                <g transform="matrix(1,0,0,1,-80.393,-49.3818)">
                    <text x="334.323px" y="263.778px" style="font-family:'ArialMT', 'Arial', sans-serif;font-size:20px;">Dirty</text>
                </g>
            </g>
            <g transform="matrix(2.52617,0,0,2.52617,-353.097,-326.614)">
                <g transform="matrix(1,0,0,1,-12.8981,-1.09088)">
                    <circle cx="286.122" cy="243.364" r="20.414" style="fill:rgb(251,222,182);stroke:rgb(83,83,83);stroke-width:1.61px;"/>
                </g>
                <g transform="matrix(1,0,0,1,-34.6079,-15.0211)">
                    <text x="334.323px" y="263.778px" style="font-family:'ArialMT', 'Arial', sans-serif;font-size:20px;">Pending</text>
                </g>
            </g>
            <g transform="matrix(2.52617,0,0,2.52617,-542.058,-402.595)">
                <g transform="matrix(1,0,0,1,175.821,130.97)">
                    <g transform="matrix(1,0,0,1,-12.8981,-1.09088)">
                        <circle cx="286.122" cy="243.364" r="20.414" style="fill:rgb(255,217,210);stroke:rgb(83,83,83);stroke-width:1.61px;"/>
                    </g>
                    <g transform="matrix(1,0,0,1,-35.1931,-13.8475)">
                        <text x="334.323px" y="263.778px" style="font-family:'ArialMT', 'Arial', sans-serif;font-size:20px;">Rejected</text>
                    </g>
                </g>
                <g transform="matrix(1,0,0,1,-25.6003,130.97)">
                    <g transform="matrix(1,0,0,1,-12.8981,-1.09088)">
                        <circle cx="286.122" cy="243.364" r="20.414" style="fill:rgb(214,239,207);stroke:rgb(83,83,83);stroke-width:1.61px;"/>
                    </g>
                    <g transform="matrix(1,0,0,1,-33.5705,-13.8572)">
                        <text x="334.323px" y="263.778px" style="font-family:'ArialMT', 'Arial', sans-serif;font-size:20px;">Accepted</text>
                    </g>
                </g>
            </g>
            <g transform="matrix(2.52617,0,0,2.52617,-502.822,-380.416)">
                <g transform="matrix(0.536675,-0,-0,0.536675,118.303,148.45)">
                    <path d="M408.42,151.369L399.475,169.397L390.42,151.425C394.934,155.911 403.934,155.883 408.42,151.369Z" style="fill:rgb(83,83,83);"/>
                    <path d="M397.901,135.231C397.901,141.821 397.913,148.411 397.931,155.001C397.933,155.829 398.607,156.499 399.435,156.497C400.263,156.495 400.933,155.821 400.931,154.993C400.913,148.406 400.901,141.819 400.901,135.231C400.901,134.404 400.229,133.731 399.401,133.731C398.573,133.731 397.901,134.404 397.901,135.231Z" style="fill:rgb(83,83,83);"/>
                </g>
                <g transform="matrix(1,0,0,1.0775,0,-22.6506)">
                    <g transform="matrix(0.536675,-0,-0,0.498072,118.303,158.794)">
                        <path d="M228.593,346.042L213.122,358.913L212.109,338.814C214.423,344.742 222.665,348.356 228.593,346.042Z" style="fill:rgb(83,83,83);"/>
                        <path d="M398.897,267.927C398.786,277.745 399.093,286.208 398.412,293.379C397.761,300.236 396.219,305.877 392.348,310.326C388.444,314.813 382.212,318.054 372.365,320.236C362.181,322.492 348.225,323.578 329.104,323.578C319.879,323.578 279.975,323.025 249.417,330.194C236.06,333.328 224.482,337.972 217.84,344.669C217.257,345.257 217.261,346.207 217.849,346.79C218.437,347.373 219.387,347.369 219.97,346.781C228.446,338.235 245.407,333.385 263.487,330.524C291.051,326.163 321.259,326.578 329.104,326.578C348.512,326.578 362.676,325.455 373.014,323.165C383.688,320.8 390.38,317.158 394.611,312.295C398.876,307.393 400.681,301.217 401.399,293.662C402.086,286.421 401.785,277.875 401.896,267.961C401.906,267.133 401.241,266.453 400.413,266.444C399.586,266.435 398.906,267.099 398.897,267.927Z" style="fill:rgb(83,83,83);"/>
                    </g>
                </g>
                <g transform="matrix(-0.949654,0,0,1.0775,649.597,-22.6506)">
                    <g transform="matrix(-0.565127,0,0,0.498072,559.461,158.794)">
                        <path d="M579.57,338.832L578.242,358.913L562.974,345.802C568.866,348.208 577.164,344.723 579.57,338.832Z" style="fill:rgb(83,83,83);"/>
                        <path d="M398.897,267.96C399.003,277.851 398.5,286.376 398.882,293.6C399.283,301.155 400.671,307.332 404.496,312.233C407.568,316.17 412.221,319.312 419.306,321.622C429.501,324.946 444.894,326.578 468.099,326.578C475.537,326.578 504.146,326.163 530.282,330.505C547.41,333.35 563.497,338.171 571.579,346.67C572.15,347.27 573.1,347.294 573.7,346.723C574.3,346.153 574.324,345.202 573.753,344.602C565.326,335.741 548.633,330.511 530.774,327.545C504.43,323.17 475.596,323.578 468.099,323.578C449.098,323.578 435.424,322.494 425.597,320.238C416.139,318.068 410.345,314.852 406.861,310.388C403.389,305.939 402.242,300.299 401.878,293.441C401.497,286.253 402.002,277.77 401.896,267.928C401.888,267.1 401.208,266.435 400.38,266.444C399.553,266.453 398.888,267.132 398.897,267.96Z" style="fill:rgb(83,83,83);"/>
                    </g>
                </g>
                <g transform="matrix(0.536675,-0,-0,0.536675,118.303,148.45)">
                    <path d="M334.736,81.183L353.657,88.037L336.821,99.062C340.77,94.071 339.727,85.131 334.736,81.183Z" style="fill:rgb(83,83,83);"/>
                    <path d="M174.726,379.327C174.418,379.323 174.089,379.132 173.715,378.89C173.139,378.516 172.527,377.98 171.899,377.344C168.698,374.107 165.185,368.395 164.168,366.093C158.985,354.36 159.392,338.797 159.392,330.439C159.392,251.743 201.661,186.199 249.076,143.427C280.637,114.955 314.476,96.563 339.668,91.172C340.478,90.999 340.994,90.201 340.821,89.391C340.648,88.582 339.85,88.065 339.041,88.238C313.475,93.709 279.095,112.306 247.066,141.199C199.095,184.474 156.392,250.819 156.392,330.439C156.392,339.084 156.062,355.169 161.424,367.306C162.522,369.79 166.31,375.959 169.766,379.454C171.544,381.251 173.34,382.308 174.684,382.327C175.512,382.338 176.193,381.676 176.205,380.848C176.216,380.02 175.554,379.339 174.726,379.327Z" style="fill:rgb(83,83,83);"/>
                </g>
                <g transform="matrix(-1.03499,0,0,1,673.01,0)">
                    <g transform="matrix(-0.518532,0,0,0.536675,535.954,148.45)">
                        <path d="M456.33,98.944L439.417,88.037L458.29,81.051C453.327,85.034 452.347,93.981 456.33,98.944Z" style="fill:rgb(83,83,83);"/>
                        <path d="M624.652,382.327C626.031,382.308 627.863,381.254 629.687,379.472C633.264,375.977 637.184,369.808 638.321,367.323C643.873,355.181 643.532,339.089 643.532,330.439C643.532,250.615 599.117,184.13 549.313,140.86C516.072,111.98 480.432,93.454 454.028,88.135C453.216,87.971 452.425,88.498 452.261,89.309C452.098,90.121 452.624,90.912 453.435,91.076C479.469,96.32 514.572,114.65 547.346,143.124C596.564,185.886 640.532,251.553 640.532,330.439C640.532,338.793 640.955,354.348 635.592,366.076C634.54,368.378 630.904,374.089 627.591,377.326C626.938,377.964 626.303,378.502 625.704,378.877C625.301,379.129 624.943,379.322 624.611,379.327C623.783,379.338 623.12,380.019 623.131,380.847C623.143,381.675 623.824,382.338 624.652,382.327Z" style="fill:rgb(83,83,83);"/>
                    </g>
                </g>
            </g>
        </g>
    </g>
</svg>
